<svg width="21" height="21" viewBox="0 0 21 21" fill="none" xmlns="http://www.w3.org/2000/svg">
<path d="M12.2237 7.0001L9.2442 9.16695C9.08775 9.28035 9.0531 9.49945 9.16685 9.65555C9.2351 9.75005 9.34185 9.79975 9.45035 9.79975C9.52175 9.79975 9.5935 9.7777 9.6558 9.7329L13.895 6.6501L9.6558 3.56695C9.499 3.4532 9.28025 3.4875 9.1672 3.6443C9.05345 3.8004 9.08775 4.0195 9.24455 4.1329L12.2237 6.3001H8.05C5.5412 6.3001 3.5 8.3413 3.5 10.8501C3.5 11.0437 3.65645 11.2001 3.85 11.2001C4.04355 11.2001 4.2 11.0437 4.2 10.8501C4.2 8.72735 5.92725 7.0001 8.05 7.0001H12.2237Z" fill="#605E5E"/>
<path d="M10.5 0C4.7103 0 0 4.7103 0 10.5C0 16.2897 4.7103 21 10.5 21C16.2897 21 21 16.2897 21 10.5C21 4.7103 16.2897 0 10.5 0ZM10.5 20.3C5.09635 20.3 0.7 15.9036 0.7 10.5C0.7 5.09635 5.09635 0.7 10.5 0.7C15.9036 0.7 20.3 5.09635 20.3 10.5C20.3 15.9036 15.9036 20.3 10.5 20.3Z" fill="#605E5E"/>
<path d="M16.7999 9.80005C16.6063 9.80005 16.4499 9.9565 16.4499 10.15C16.4499 12.2728 14.7226 14 12.5999 14H8.42613L11.4057 11.8332C11.5621 11.7198 11.5968 11.5007 11.483 11.3446C11.3696 11.1881 11.1509 11.1535 10.9944 11.2672L6.75488 14.35L10.9941 17.4332C11.0564 17.4783 11.1281 17.5 11.1995 17.5C11.308 17.5 11.4144 17.45 11.483 17.3558C11.5968 17.1997 11.5625 16.9806 11.4057 16.8672L8.42613 14.7H12.5999C15.1087 14.7 17.1499 12.6588 17.1499 10.15C17.1499 9.9565 16.9934 9.80005 16.7999 9.80005Z" fill="#605E5E"/>
</svg>
