<svg width="17" height="16" viewBox="0 0 17 16" fill="none" xmlns="http://www.w3.org/2000/svg">
<path d="M14.873 1.5H12.6949V0.5C12.6949 0.2235 12.4703 0 12.1924 0C11.9144 0 11.6898 0.2235 11.6898 0.5V1.5H8.67442V0.5C8.67442 0.2235 8.44927 0 8.17185 0C7.89444 0 7.66929 0.2235 7.66929 0.5V1.5H4.65392V0.5C4.65392 0.2235 4.42877 0 4.15136 0C3.87394 0 3.64879 0.2235 3.64879 0.5V1.5H1.47119C0.730919 1.5 0.130859 2.0965 0.130859 2.833V14.6665C0.130859 15.403 0.730919 16 1.47119 16H14.873C15.6133 16 16.2129 15.403 16.2129 14.6665V2.833C16.2129 2.0965 15.6133 1.5 14.873 1.5ZM15.2077 14.6665C15.2077 14.8505 15.0575 15 14.873 15H1.47119C1.28625 15 1.13598 14.8505 1.13598 14.6665V2.833C1.13598 2.6495 1.28625 2.5 1.47119 2.5H3.64879V3.5C3.64879 3.7765 3.87394 4 4.15136 4C4.42877 4 4.65392 3.7765 4.65392 3.5V2.5H7.66929V3.5C7.66929 3.7765 7.89444 4 8.17185 4C8.44927 4 8.67442 3.7765 8.67442 3.5V2.5H11.6898V3.5C11.6898 3.7765 11.9144 4 12.1924 4C12.4703 4 12.6949 3.7765 12.6949 3.5V2.5H14.873C15.0575 2.5 15.2077 2.6495 15.2077 2.833V14.6665Z" fill="#333333"/>
<path d="M5.65869 6H3.64844V7.5H5.65869V6Z" fill="#333333"/>
<path d="M5.65869 8.5H3.64844V10H5.65869V8.5Z" fill="#333333"/>
<path d="M5.65869 11H3.64844V12.5H5.65869V11Z" fill="#333333"/>
<path d="M9.17724 11H7.16699V12.5H9.17724V11Z" fill="#333333"/>
<path d="M9.17724 8.5H7.16699V10H9.17724V8.5Z" fill="#333333"/>
<path d="M9.17724 6H7.16699V7.5H9.17724V6Z" fill="#333333"/>
<path d="M12.6948 11H10.6846V12.5H12.6948V11Z" fill="#333333"/>
<path d="M12.6948 8.5H10.6846V10H12.6948V8.5Z" fill="#333333"/>
<path d="M12.6948 6H10.6846V7.5H12.6948V6Z" fill="#333333"/>
</svg>
